<?xml version="1.0" encoding="utf-8"?>
<!-- Generator: Adobe Illustrator 27.5.0, SVG Export Plug-In . SVG Version: 6.00 Build 0)  -->
<svg version="1.1" id="Capa_1" xmlns="http://www.w3.org/2000/svg" xmlns:xlink="http://www.w3.org/1999/xlink" x="0px" y="0px"
	 viewBox="0 0 131.73 115.98" style="enable-background:new 0 0 131.73 115.98;" xml:space="preserve">
<style type="text/css">
	.st0{fill:#eee;}
</style>
<g>
	<g>
		<path class="st0" d="M49.16,115.19c-1.26,0-2.34-0.08-3.28-0.24c-6.01-0.99-12.19-2.52-16.97-4.22l-1.3-0.7l-0.03-0.35
			c-0.08-1.06,0-1.91,0.06-2.48c0.12-1.33,0.15-1.73-1.14-2.44l-0.08-0.05c-1.03-0.89-1.96-0.99-3.16-1.09
			c-1.24-0.12-2.64-0.26-4.47-1.23c-1.8-0.97-4.51-3.03-5.81-4.42c-0.81-0.86-1.6-2.13-2.44-3.48l-0.06-0.1
			c-1.35-2.19-2.88-4.67-4.73-5.8l-0.13-0.08c-0.05-0.03-0.11-0.07-0.17-0.12l-0.14-0.1c-0.09-0.07-0.17-0.15-0.25-0.23l-0.11-0.11
			c-0.07-0.08-0.14-0.17-0.21-0.26l-0.12-0.15c-0.06-0.08-0.12-0.18-0.18-0.27l-0.13-0.19c-0.05-0.09-0.11-0.18-0.16-0.26
			l-0.24-0.41l0.32-0.34l-0.38,0.21l-0.19-0.36L4,85.63L3.6,85.81l-0.18-0.37l0.34-0.33l-0.39,0.18L2.2,82.24l-0.18-0.59
			c-0.17-1.47-0.37-2.51-0.55-3.42c-0.32-1.6-0.58-2.93-0.54-5.56c-0.45-8.09,4.6-11.8,7.65-13.29c1.5-0.73,2.64-1.04,3.84-1.04
			c0.92,0,1.76,0.18,2.82,0.41l0.27,0.06c0.43,0.09,0.9,0.19,1.43,0.29c2.08,0.37,3.14,0.5,4.03,0.5c0.99,0,1.88-0.17,3.38-0.44
			c0.36-0.07,0.71-0.14,1.08-0.2c2-1.14,3.02-1.23,3.82-1.23h0.36c0.56,0,1.1,0,2.89-1.74l0.21-0.19c2.29-2.21,3.05-2.95,3.81-7.01
			c-1.42,0.23-3.42,0.67-5.7,1.17c-4.75,1.05-10.58,2.33-14.08,2.33c-2,0-3.12-0.41-3.48-1.32c-0.4-1,0.25-2.28,2.05-4.05l0.34-0.32
			c0.55-0.53,0.61-0.59,1.1-1.27c0.05-0.07,0.19-0.29,0.31-0.46c0.1-0.15,0.18-0.28,0.21-0.32c0.14-0.27,0.23-0.42,0.29-0.5
			c0-0.08,0.02-0.23,0.07-0.46l0.04-0.19l0.18-0.19c0.61-0.38,1.1-1.35,1.63-2.38c1.53-2.97,3.83-7.46,11.61-7.93
			c0.12-0.01,0.28-0.02,0.43-0.02c0.48-0.03,1.03-0.06,1.29-0.1l0,0c-3-2.76-9.33-13.85-9.88-17.07c-0.27-1.55-0.18-3.66-0.09-5.69
			V9.91c0.05-1.24,0.11-2.52,0.07-3.58l-0.02-0.6l0.55-0.08c0.44-0.07,0.83-0.1,1.16-0.1c0.99,0,1.46,0.34,2.17,0.84l0.27,0.19
			l0.45,1.4c1.75,4.14,3.9,8.35,9.02,10.02c3.28,1.07,4.9,1.37,7.21,1.37c1.01,0,2.1-0.06,3.8-0.15c0.43-0.03,0.89-0.04,1.32-0.05
			h0.2c1.33-0.02,2.58-0.04,3.42-0.56l0.13-0.08l0.22-0.02l0.1,0.01c0.12,0.02,0.37,0.05,0.92,0.05c2.36,0,7.45-0.45,8.99-0.76
			l3.7-0.31l13.03-0.04l4.16,0.05c2.27,0.02,3.85,0.16,5.11,0.27c1.25,0.11,2.42,0.21,3.92,0.21c1.24,0,2.67-0.07,4.38-0.22
			c6.32-0.89,9.3-2.07,13.26-5.27c1.76-1.42,2.95-3.03,3.88-5.24c0.33-0.78,0.46-1.69,0.59-2.56c0.27-1.83,0.57-3.9,2.87-3.9
			l0.42,0.14c0.8,0.63,1.28,1.22,1.71,1.74l0.09,0.1c0.23,0.27,0.46,0.55,0.75,0.84l0.09,0.09l0.09,0.26
			c0.39,2.48,0.24,4.46,0.07,6.75c-0.04,0.47-0.08,0.92-0.11,1.39c-0.1,0.53-0.18,1.04-0.26,1.57l-0.03,0.19
			c-0.12,0.83-0.26,1.77-0.45,2.55c-0.77,3.03-4.35,9.04-6.59,11.11c-1.03,0.95-2.06,1.67-2.96,2.3c-1.14,0.8-2.08,1.45-2.58,2.25
			l2.35,0.85c8.76,2.64,12.58,7.51,15.95,11.8c1.38,1.77,2.66,3.4,4.16,4.72l0.13,0.11l0.07,0.22l0.11,1.01
			c0.34,1.91,0.25,2.93-0.34,3.62c-0.65,0.78-1.76,0.93-3.57,0.93l-0.49-0.06l-3.07-1.42l-4.24-3.04c-1.51-0.76-4.26-1.27-6.96-1.27
			c-1.25,0-2.41,0.11-3.41,0.33l2.9,1.99l-0.06,0.38c-0.21,1.51-0.55,2.5-0.8,3.22c-0.59,1.7-0.66,1.91,3.4,6.18
			c0.76,0.79,0.99,0.98,1.67,1.51l0.18,0.15c2.74,2.17,3.68,5.17,4.75,8.63c0.74,2.37,1.5,4.81,2.94,7.33
			c0.19,0.34,0.37,0.67,0.55,1.01l0.01,0.01c1.3,2.59-1.79,6.54-4.03,9.42c-0.4,0.51-0.77,0.98-1.06,1.37
			c-0.47,0.65-1.03,1.22-1.66,1.72c-0.79,0.62-1.53,1.23-2.25,1.84c-5.26,4.42-9.8,8.24-29.31,6.52c-0.14,0.15-0.29,0.3-0.43,0.47
			c-1.15,1.35-2.54,2.23-3.78,3c-0.96,0.6-1.72,1.08-2.11,1.58l-0.09,0.11l-0.17,0.08c-0.55,0.2-1.05,0.42-1.57,0.66
			c-0.85,0.38-1.69,0.76-2.65,1.03c-0.65,0.18-1.55,0.31-2.41,0.41c-0.75,0.1-1.6,0.22-2.07,0.36l-5.05,5.82l-0.36-0.07
			c-0.99-0.16-2.08-0.24-3.34-0.24c-2.11,0-4.38,0.23-6.38,0.43C53.31,114.97,51.16,115.19,49.16,115.19z M28.44,109.49l0.82,0.44
			c4.68,1.65,10.81,3.17,16.77,4.15c0.91,0.16,1.92,0.23,3.14,0.23c1.95,0,4.08-0.22,6.14-0.42c2.06-0.21,4.35-0.44,6.51-0.44
			c1.25,0,2.36,0.08,3.36,0.23l4.87-5.61l0.11-0.04c0.53-0.19,1.46-0.32,2.35-0.43c0.83-0.11,1.69-0.23,2.29-0.39
			c0.9-0.25,1.71-0.61,2.49-0.96c0.56-0.26,1.06-0.48,1.58-0.68c0.53-0.61,1.31-1.1,2.21-1.67c1.24-0.78,2.57-1.62,3.65-2.87
			c0.22-0.26,0.42-0.47,0.62-0.67l0.15-0.15l0.21,0.02c19.32,1.73,23.75-1.99,28.88-6.3c0.73-0.61,1.47-1.24,2.28-1.86
			c0.56-0.44,1.07-0.96,1.49-1.54c0.3-0.4,0.66-0.88,1.08-1.4c1.99-2.54,4.99-6.38,3.95-8.48c-0.18-0.33-0.36-0.65-0.54-0.98
			c-1.49-2.59-2.3-5.2-3.01-7.5c-1.04-3.32-1.93-6.2-4.47-8.21l-0.18-0.15c-0.7-0.54-0.96-0.76-1.76-1.59
			c-4.27-4.49-4.34-4.92-3.61-7.02c0.25-0.71,0.55-1.61,0.75-2.95l-3.98-2.73l0.86-0.27c1.25-0.39,2.84-0.6,4.58-0.6
			c2.83,0,5.74,0.55,7.42,1.4l4.23,3.04l2.88,1.34l0.23,0.01c1.49,0,2.45-0.1,2.88-0.61c0.38-0.45,0.42-1.33,0.14-2.93l-0.1-0.87
			c-1.56-1.4-2.83-3.03-4.18-4.75c-3.31-4.21-7.04-8.96-15.55-11.53l-3.26-1.17l0.18-0.42c0.51-1.24,1.72-2.07,3.1-3.04
			c0.9-0.62,1.89-1.32,2.88-2.23c2.16-1.98,5.59-7.77,6.33-10.68c0.19-0.75,0.33-1.66,0.43-2.47l0.03-0.19
			c0.08-0.54,0.16-1.07,0.26-1.55c0.02-0.41,0.06-0.88,0.1-1.32c0.17-2.24,0.32-4.15-0.04-6.49c-0.29-0.31-0.52-0.57-0.74-0.83
			l-0.09-0.11c-0.4-0.49-0.83-1.01-1.51-1.56c-1.43,0.06-1.68,1.23-1.95,3.12c-0.15,0.96-0.29,1.92-0.65,2.8
			c-0.99,2.35-2.26,4.07-4.13,5.58c-4.1,3.32-7.18,4.55-13.71,5.45c-1.75,0.15-3.21,0.22-4.48,0.22c-1.54,0-2.71-0.1-3.97-0.21
			c-1.28-0.11-2.84-0.25-5.08-0.27l-4.15-0.05l-12.99,0.03l-3.62,0.3c-1.52,0.3-6.71,0.76-9.1,0.76c-0.42,0-0.74-0.01-0.97-0.04
			c-1.08,0.61-2.46,0.63-3.8,0.65h-0.2c-0.42,0.01-0.85,0.01-1.28,0.04c-1.72,0.09-2.82,0.15-3.85,0.15c-2.42,0-4.09-0.32-7.48-1.41
			c-5.47-1.78-7.72-6.18-9.57-10.54l-0.4-1.17c-0.65-0.45-0.95-0.66-1.66-0.66c-0.24,0-0.5,0.02-0.82,0.06
			c0.03,1.05-0.03,2.26-0.08,3.43l-0.01,0.12c-0.09,1.99-0.18,4.04,0.08,5.5c0.61,3.55,8.21,16.24,10.16,16.97l1.23,0.46l-2.17,0.63
			c-0.36,0.07-0.92,0.1-1.4,0.13c-0.22,0.01-0.36,0.02-0.47,0.02c-7.29,0.44-9.45,4.67-10.88,7.45c-0.58,1.13-1.08,2.12-1.79,2.62
			c-0.03,0.17-0.05,0.27-0.06,0.34c-0.02,0.14-0.04,0.21-0.12,0.34c-0.05,0.08-0.13,0.21-0.27,0.48c-0.06,0.09-0.13,0.2-0.22,0.34
			c-0.13,0.21-0.29,0.44-0.34,0.51c-0.52,0.72-0.6,0.81-1.2,1.39l-0.33,0.32c-1.83,1.8-2.01,2.67-1.84,3.09
			c0.21,0.5,1.13,0.77,2.67,0.77c3.4,0,9.19-1.27,13.84-2.3C33.26,48.5,35.54,48,37,47.8l0.59-0.08l-0.1,0.59
			c-0.85,4.88-1.68,5.69-4.16,8.09l-0.21,0.2c-1.75,1.69-2.49,1.97-3.5,1.97h-0.36c-0.69,0-1.58,0.09-3.44,1.16l-0.15,0.05
			c-0.39,0.07-0.75,0.14-1.08,0.2c-1.61,0.3-2.53,0.46-3.6,0.46c-0.96,0-2.05-0.14-4.19-0.51c-0.53-0.1-1.01-0.2-1.45-0.29
			l-0.25-0.05c-2.37-0.5-3.68-0.63-6.12,0.55c-2.86,1.39-7.59,4.86-7.16,12.48c-0.03,2.57,0.23,3.87,0.52,5.37
			c0.19,0.98,0.39,2.03,0.57,3.54l0.89,2.48l-0.36,0.27l0.4-0.17l1.07,2.23l0.25,0.4c0.09,0.14,0.14,0.22,0.2,0.29l0.06,0.08
			c0.1,0.13,0.16,0.2,0.22,0.26L5.4,87.75l0.32-0.31c0.06,0.06,0.12,0.12,0.18,0.17L5.69,88l0.32-0.31
			c0.03,0.02,0.05,0.04,0.08,0.06l0.07,0.04c2.08,1.24,3.68,3.84,5.1,6.13l0.06,0.1c0.81,1.31,1.58,2.55,2.33,3.34
			c1.25,1.33,3.87,3.31,5.59,4.24c1.67,0.9,2.98,1.03,4.13,1.13c1.23,0.12,2.39,0.24,3.61,1.28c1.76,0.98,1.68,1.88,1.56,3.26
			C28.46,107.84,28.39,108.57,28.44,109.49z"/>
	</g>
	<path class="st0" d="M19.76,85.04l0.17,0.19c0.53,0.63,0.98,2.39,1.45,4.26c0.35,1.35,0.7,2.76,1.08,3.69
		c0.54,1.31,0.82,2.29,1.04,3.07c0.43,1.56,0.68,2.42,2.52,4.08c3.27,2.97,7.6,6,14.81,6.02c0.31-1.83-0.45-2.66-1.41-3.72
		c-0.33-0.36-0.65-0.72-0.99-1.15c-0.74-0.99-1.23-1.95-1.8-3.07c-0.31-0.59-0.61-1.2-0.99-1.86c-1.83-3.25-2.12-4.31-2.46-5.53
		c-0.3-1.08-0.62-2.3-2.08-5.32c-1.15-1.85-1.78-3.66-2.44-5.58c-0.57-1.67-1.16-3.38-2.14-5.2c-0.62-1.14-1.06-2.03-1.42-2.75
		c-1.43-2.87-1.43-2.87-6.06-5.17l-0.2-0.09c-1.73-0.85-3.58-1.34-5.1-1.34c-1.83,0-4.11,0.71-4.54,4.07l0,0.11
		C7.93,79.95,7.84,82.71,8,83.23c0.4,1.41,4.24,9.27,5.01,10.26c1.7,2.17,6.27,6.38,8.75,6.52c-0.15-0.51-0.36-1.15-0.6-1.88
		c-1.27-3.84-3.39-10.28-1.55-12.89L19.76,85.04z"/>
	<path class="st0" d="M35.04,38.05c-1.21,0.88-2.47,1.8-4,2.33l-0.53,0.19l0.31-0.48c0.62-0.97,1.15-1.35,2.03-1.98
		c0.22-0.16,0.46-0.33,0.73-0.53c0.58-0.43,1.02-0.73,1.33-0.94c0.73-0.49,0.92-0.62,1.35-1.41c-0.48,0.12-0.87,0.24-1.23,0.36
		c-0.54,0.19-1.05,0.35-1.81,0.46c-1.11,0.16-1.83,0.17-2.35,0.18c-1.4,0.02-1.4,0.02-4.87,3.38l-0.66,0.64
		c-0.81,0.78-1.42,1.52-2.01,2.24c-0.55,0.67-1.11,1.36-1.82,2.05l-0.33,0.33c-1.4,1.36-2.52,2.45-3.04,4.57
		c1.27-0.27,2.3-0.66,3.36-1.08c0.8-0.32,1.63-0.65,2.59-0.92c0.86-0.25,1.8-0.38,2.78-0.53c1.44-0.21,2.94-0.43,4.2-1.01
		c4.73-2.15,6.73-5.02,6.61-9.55C36.75,36.79,35.92,37.41,35.04,38.05z"/>
	<path class="st0" d="M43.7,32.73c2.09-1.08,3.64-7.14,2.76-10.74c-0.17-0.02-0.34-0.03-0.49-0.03c-0.64,0-1.14,0.17-1.69,0.35
		c-0.58,0.19-1.19,0.38-1.98,0.38c-0.78,0-1.63-0.19-2.6-0.58c-1-0.39-2.09-0.65-3.17-0.9c-1.42-0.34-2.76-0.64-3.79-1.25
		c-2.67-1.59-3.79-3.75-4.86-5.84c-0.69-1.35-1.36-2.64-2.41-3.8c0.22,3.63,0.99,8.2,2.55,10.74c0.74,1.19,1.11,2,1.56,2.94
		c0.25,0.52,0.52,1.11,0.9,1.85c1.08,2.12,6.71,7.35,11.15,7.35C42.39,33.19,43.08,33.04,43.7,32.73z"/>
	<path class="st0" d="M96.9,39.71c1.27,4.37,13.15,5.63,17.84,6.08c-3.25-2.92-13.29-6.27-16.79-6.27
		C97.32,39.53,97.03,39.62,96.9,39.71z"/>
	<path class="st0" d="M87.47,35.62c0.95,0,2.06-0.09,3.47-0.21c1.42-0.12,3.2-0.27,5.28-0.35c5.45-0.22,7.37-2.53,8.91-4.39
		c0.67-0.81,1.24-1.51,2.01-1.92c1.21-0.64,1.87-0.94,2.27-1.1c0.59-0.26,0.59-0.26,1.14-0.98c0.27-0.35,0.67-0.87,1.31-1.66
		c0.37-0.46,0.76-0.88,1.13-1.29c0.94-1.04,1.82-2.01,2.6-3.52c1.89-3.65,3.68-10.88,2.29-13.91l-0.25,0.35
		c-0.26,0.41-0.53,0.87-0.83,1.34c-1.69,2.74-3.79,6.15-6.02,7.83c-0.18,0.13-0.4,0.31-0.66,0.52c-1.34,1.06-3.37,2.65-4.58,2.91
		c-1.26,0.28-2.08,0.3-2.88,0.31c-1.14,0.02-2.21,0.04-4.5,0.89c-1.83,0.68-2.95,0.71-4.12,0.73c-0.96,0.02-1.93,0.04-3.42,0.39
		c-0.77,0.19-1.39,0.28-1.91,0.28c-0.92,0-1.36-0.29-1.75-0.55c-0.35-0.23-0.64-0.42-1.27-0.42c-0.36,0-0.8,0.07-1.33,0.21
		c-1.18,0.31-2.05,1.01-2.57,2.08c-1.17,2.48-0.32,6.58,1.06,9.56C83.88,34.95,84.96,35.62,87.47,35.62z"/>
	<path class="st0" d="M41.78,53.71c0,0.59-0.01,0.97-0.02,1.21c0,0.09,0,0.18,0,0.24c0.13,0.01,0.31,0.04,0.55,0.16
		c0-0.02,0.01-0.03,0.01-0.03c0.03-0.06,0.05-0.12,0.08-0.16l1.19-6.49c0.57-2.89,1.15-3.79,3.73-3.79c0.3,0,0.62,0.01,0.97,0.03
		l0.07,0.01l0.05,0.05c3.45,3.17,3.37,5.35,2.52,11.07l5.95,0.27c-1.13-4.02,0.69-8.38,3.03-10.49l0.06-0.05h0.07
		c3.66-0.09,5.35,1.85,5.37,6.13l-0.63,5.21l8.5,0.9c-0.57-9.58-2.64-21.1-9.24-22.2c-0.48-0.08-0.94-0.13-1.35-0.13
		c-2.98,0-3.94,2.06-4.93,4.24l-0.13,0.29l-0.21-0.23L55,36.95c-0.82-0.93-1.91-1.42-3.16-1.42c-2.37,0-5.02,1.77-6.46,4.3
		C44.52,41.38,41.75,51.21,41.78,53.71z"/>
	<path class="st0" d="M48.11,46.3c-0.05-0.01-0.11-0.01-0.18-0.01c-0.39,0-0.99,0.13-1.28,0.22c0.16,0.28,0.21,0.42,0.23,0.51l0,0
		c0.03,0.02,0.09,0.03,0.15,0.05c0.19,0.06,0.49,0.15,1.04,0.36l0.11,0.04l0.36,2.4c0.75-0.34,1.14-0.66,1.26-1.05
		c0.13-0.4-0.01-0.93-0.45-1.66C49.19,46.96,48.28,46.35,48.11,46.3z"/>
	<path class="st0" d="M63.29,47.28l-2.2-0.17l1.98,2.68c0.24,0.31,0.24,0.31,0.33,0.35c0.04,0.02,0.09,0.05,0.17,0.1
		c0.49-1.02,0.35-1.34,0.05-2.08C63.5,47.9,63.39,47.62,63.29,47.28z"/>
	<path class="st0" d="M35.04,38.05c-1.21,0.88-2.47,1.8-4,2.33l-0.53,0.19l0.31-0.48c0.62-0.97,1.15-1.35,2.03-1.98
		c0.22-0.16,0.46-0.33,0.73-0.53c0.58-0.43,1.02-0.73,1.33-0.94c0.73-0.49,0.92-0.62,1.35-1.41c-0.48,0.12-0.87,0.24-1.23,0.36
		c-0.54,0.19-1.05,0.35-1.81,0.46c-1.11,0.16-1.83,0.17-2.35,0.18c-1.4,0.02-1.4,0.02-4.87,3.38l-0.66,0.64
		c-0.81,0.78-1.42,1.52-2.01,2.24c-0.55,0.67-1.11,1.36-1.82,2.05l-0.33,0.33c-1.4,1.36-2.52,2.45-3.04,4.57
		c1.27-0.27,2.3-0.66,3.36-1.08c0.8-0.32,1.63-0.65,2.59-0.92c0.86-0.25,1.8-0.38,2.78-0.53c1.44-0.21,2.94-0.43,4.2-1.01
		c4.73-2.15,6.73-5.02,6.61-9.55C36.75,36.79,35.92,37.41,35.04,38.05z"/>
	<path class="st0" d="M32.02,109.58l14.48,2.6c1.04,0.09,2.18,0.13,3.47,0.13c1.52,0,3.08-0.06,4.59-0.12
		c1.2-0.05,2.46-0.09,3.68-0.11c3.17-0.04,7.08-0.09,7.39-3.13c-2.4-0.88-11.02-1.29-16.21-1.29c-1.02,0-1.87,0.02-2.49,0.05
		c-1.14,0.06-2.13,0.22-3.08,0.36c-1.1,0.17-2.15,0.34-3.33,0.34c-1.1,0-2.22-0.15-3.4-0.44c-0.68-0.17-1.36-0.4-2.01-0.62
		c-1.35-0.45-2.63-0.88-3.97-0.88c-0.58,0-1.11,0.08-1.65,0.25C29.17,108.94,29.85,109.09,32.02,109.58z"/>
	<path class="st0" d="M19.76,85.04l0.17,0.19c0.53,0.63,0.98,2.39,1.45,4.26c0.35,1.35,0.7,2.76,1.08,3.69
		c0.54,1.31,0.82,2.29,1.04,3.07c0.43,1.56,0.68,2.42,2.52,4.08c3.27,2.97,7.6,6,14.81,6.02c0.31-1.83-0.45-2.66-1.41-3.72
		c-0.33-0.36-0.65-0.72-0.99-1.15c-0.74-0.99-1.23-1.95-1.8-3.07c-0.31-0.59-0.61-1.2-0.99-1.86c-1.83-3.25-2.12-4.31-2.46-5.53
		c-0.3-1.08-0.62-2.3-2.08-5.32c-1.15-1.85-1.78-3.66-2.44-5.58c-0.57-1.67-1.16-3.38-2.14-5.2c-0.62-1.14-1.06-2.03-1.42-2.75
		c-1.43-2.87-1.43-2.87-6.06-5.17l-0.2-0.09c-1.73-0.85-3.58-1.34-5.1-1.34c-1.83,0-4.11,0.71-4.54,4.07l0,0.11
		C7.93,79.95,7.84,82.71,8,83.23c0.4,1.41,4.24,9.27,5.01,10.26c1.7,2.17,6.27,6.38,8.75,6.52c-0.15-0.51-0.36-1.15-0.6-1.88
		c-1.27-3.84-3.39-10.28-1.55-12.89L19.76,85.04z"/>
	<path class="st0" d="M96.9,39.71c1.27,4.37,13.15,5.63,17.84,6.08c-3.25-2.92-13.29-6.27-16.79-6.27
		C97.32,39.53,97.03,39.62,96.9,39.71z"/>
	<path class="st0" d="M87.47,35.62c0.95,0,2.06-0.09,3.47-0.21c1.42-0.12,3.2-0.27,5.28-0.35c5.45-0.22,7.37-2.53,8.91-4.39
		c0.67-0.81,1.24-1.51,2.01-1.92c1.21-0.64,1.87-0.94,2.27-1.1c0.59-0.26,0.59-0.26,1.14-0.98c0.27-0.35,0.67-0.87,1.31-1.66
		c0.37-0.46,0.76-0.88,1.13-1.29c0.94-1.04,1.82-2.01,2.6-3.52c1.89-3.65,3.68-10.88,2.29-13.91l-0.25,0.35
		c-0.26,0.41-0.53,0.87-0.83,1.34c-1.69,2.74-3.79,6.15-6.02,7.83c-0.18,0.13-0.4,0.31-0.66,0.52c-1.34,1.06-3.37,2.65-4.58,2.91
		c-1.26,0.28-2.08,0.3-2.88,0.31c-1.14,0.02-2.21,0.04-4.5,0.89c-1.83,0.68-2.95,0.71-4.12,0.73c-0.96,0.02-1.93,0.04-3.42,0.39
		c-0.77,0.19-1.39,0.28-1.91,0.28c-0.92,0-1.36-0.29-1.75-0.55c-0.35-0.23-0.64-0.42-1.27-0.42c-0.36,0-0.8,0.07-1.33,0.21
		c-1.18,0.31-2.05,1.01-2.57,2.08c-1.17,2.48-0.32,6.58,1.06,9.56C83.88,34.95,84.96,35.62,87.47,35.62z"/>
	<path class="st0" d="M63.29,47.28l-2.2-0.17l1.98,2.68c0.24,0.31,0.24,0.31,0.33,0.35c0.04,0.02,0.09,0.05,0.17,0.1
		c0.49-1.02,0.35-1.34,0.05-2.08C63.5,47.9,63.39,47.62,63.29,47.28z"/>
	<path class="st0" d="M48.11,46.3c-0.05-0.01-0.11-0.01-0.18-0.01c-0.39,0-0.99,0.13-1.28,0.22c0.16,0.28,0.21,0.42,0.23,0.51l0,0
		c0.03,0.02,0.09,0.03,0.15,0.05c0.19,0.06,0.49,0.15,1.04,0.36l0.11,0.04l0.36,2.4c0.75-0.34,1.14-0.66,1.26-1.05
		c0.13-0.4-0.01-0.93-0.45-1.66C49.19,46.96,48.28,46.35,48.11,46.3z"/>
	<path class="st0" d="M41.78,53.71c0,0.59-0.01,0.97-0.02,1.21c0,0.09,0,0.18,0,0.24c0.13,0.01,0.31,0.04,0.55,0.16
		c0-0.02,0.01-0.03,0.01-0.03c0.03-0.06,0.05-0.12,0.08-0.16l1.19-6.49c0.57-2.89,1.15-3.79,3.73-3.79c0.3,0,0.62,0.01,0.97,0.03
		l0.07,0.01l0.05,0.05c3.45,3.17,3.37,5.35,2.52,11.07l5.95,0.27c-1.13-4.02,0.69-8.38,3.03-10.49l0.06-0.05h0.07
		c3.66-0.09,5.35,1.85,5.37,6.13l-0.63,5.21l8.5,0.9c-0.57-9.58-2.64-21.1-9.24-22.2c-0.48-0.08-0.94-0.13-1.35-0.13
		c-2.98,0-3.94,2.06-4.93,4.24l-0.13,0.29l-0.21-0.23L55,36.95c-0.82-0.93-1.91-1.42-3.16-1.42c-2.37,0-5.02,1.77-6.46,4.3
		C44.52,41.38,41.75,51.21,41.78,53.71z"/>
	<path class="st0" d="M43.7,32.73c2.09-1.08,3.64-7.14,2.76-10.74c-0.17-0.02-0.34-0.03-0.49-0.03c-0.64,0-1.14,0.17-1.69,0.35
		c-0.58,0.19-1.19,0.38-1.98,0.38c-0.78,0-1.63-0.19-2.6-0.58c-1-0.39-2.09-0.65-3.17-0.9c-1.42-0.34-2.76-0.64-3.79-1.25
		c-2.67-1.59-3.79-3.75-4.86-5.84c-0.69-1.35-1.36-2.64-2.41-3.8c0.22,3.63,0.99,8.2,2.55,10.74c0.74,1.19,1.11,2,1.56,2.94
		c0.25,0.52,0.52,1.11,0.9,1.85c1.08,2.12,6.71,7.35,11.15,7.35C42.39,33.19,43.08,33.04,43.7,32.73z"/>
	<path class="st0" d="M43.7,32.73c2.09-1.08,3.64-7.14,2.76-10.74c-0.17-0.02-0.34-0.03-0.49-0.03c-0.64,0-1.14,0.17-1.69,0.35
		c-0.58,0.19-1.19,0.38-1.98,0.38c-0.78,0-1.63-0.19-2.6-0.58c-1-0.39-2.09-0.65-3.17-0.9c-1.42-0.34-2.76-0.64-3.79-1.25
		c-2.67-1.59-3.79-3.75-4.86-5.84c-0.69-1.35-1.36-2.64-2.41-3.8c0.22,3.63,0.99,8.2,2.55,10.74c0.74,1.19,1.11,2,1.56,2.94
		c0.25,0.52,0.52,1.11,0.9,1.85c1.08,2.12,6.71,7.35,11.15,7.35C42.39,33.19,43.08,33.04,43.7,32.73z"/>
	<path class="st0" d="M32.02,109.58l14.48,2.6c1.04,0.09,2.18,0.13,3.47,0.13c1.52,0,3.08-0.06,4.59-0.12
		c1.2-0.05,2.46-0.09,3.68-0.11c3.17-0.04,7.08-0.09,7.39-3.13c-2.4-0.88-11.02-1.29-16.21-1.29c-1.02,0-1.87,0.02-2.49,0.05
		c-1.14,0.06-2.13,0.22-3.08,0.36c-1.1,0.17-2.15,0.34-3.33,0.34c-1.1,0-2.22-0.15-3.4-0.44c-0.68-0.17-1.36-0.4-2.01-0.62
		c-1.35-0.45-2.63-0.88-3.97-0.88c-0.58,0-1.11,0.08-1.65,0.25C29.17,108.94,29.85,109.09,32.02,109.58z"/>
	<path class="st0" d="M19.76,85.04l0.17,0.19c0.53,0.63,0.98,2.39,1.45,4.26c0.35,1.35,0.7,2.76,1.08,3.69
		c0.54,1.31,0.82,2.29,1.04,3.07c0.43,1.56,0.68,2.42,2.52,4.08c3.27,2.97,7.6,6,14.81,6.02c0.31-1.83-0.45-2.66-1.41-3.72
		c-0.33-0.36-0.65-0.72-0.99-1.15c-0.74-0.99-1.23-1.95-1.8-3.07c-0.31-0.59-0.61-1.2-0.99-1.86c-1.83-3.25-2.12-4.31-2.46-5.53
		c-0.3-1.08-0.62-2.3-2.08-5.32c-1.15-1.85-1.78-3.66-2.44-5.58c-0.57-1.67-1.16-3.38-2.14-5.2c-0.62-1.14-1.06-2.03-1.42-2.75
		c-1.43-2.87-1.43-2.87-6.06-5.17l-0.2-0.09c-1.73-0.85-3.58-1.34-5.1-1.34c-1.83,0-4.11,0.71-4.54,4.07l0,0.11
		C7.93,79.95,7.84,82.71,8,83.23c0.4,1.41,4.24,9.27,5.01,10.26c1.7,2.17,6.27,6.38,8.75,6.52c-0.15-0.51-0.36-1.15-0.6-1.88
		c-1.27-3.84-3.39-10.28-1.55-12.89L19.76,85.04z"/>
	<path class="st0" d="M35.04,38.05c-1.21,0.88-2.47,1.8-4,2.33l-0.53,0.19l0.31-0.48c0.62-0.97,1.15-1.35,2.03-1.98
		c0.22-0.16,0.46-0.33,0.73-0.53c0.58-0.43,1.02-0.73,1.33-0.94c0.73-0.49,0.92-0.62,1.35-1.41c-0.48,0.12-0.87,0.24-1.23,0.36
		c-0.54,0.19-1.05,0.35-1.81,0.46c-1.11,0.16-1.83,0.17-2.35,0.18c-1.4,0.02-1.4,0.02-4.87,3.38l-0.66,0.64
		c-0.81,0.78-1.42,1.52-2.01,2.24c-0.55,0.67-1.11,1.36-1.82,2.05l-0.33,0.33c-1.4,1.36-2.52,2.45-3.04,4.57
		c1.27-0.27,2.3-0.66,3.36-1.08c0.8-0.32,1.63-0.65,2.59-0.92c0.86-0.25,1.8-0.38,2.78-0.53c1.44-0.21,2.94-0.43,4.2-1.01
		c4.73-2.15,6.73-5.02,6.61-9.55C36.75,36.79,35.92,37.41,35.04,38.05z"/>
	<path class="st0" d="M96.9,39.71c1.27,4.37,13.15,5.63,17.84,6.08c-3.25-2.92-13.29-6.27-16.79-6.27
		C97.32,39.53,97.03,39.62,96.9,39.71z"/>
	<path class="st0" d="M48.11,46.3c-0.05-0.01-0.11-0.01-0.18-0.01c-0.39,0-0.99,0.13-1.28,0.22c0.16,0.28,0.21,0.42,0.23,0.51l0,0
		c0.03,0.02,0.09,0.03,0.15,0.05c0.19,0.06,0.49,0.15,1.04,0.36l0.11,0.04l0.36,2.4c0.75-0.34,1.14-0.66,1.26-1.05
		c0.13-0.4-0.01-0.93-0.45-1.66C49.19,46.96,48.28,46.35,48.11,46.3z"/>
	<path class="st0" d="M87.47,35.62c0.95,0,2.06-0.09,3.47-0.21c1.42-0.12,3.2-0.27,5.28-0.35c5.45-0.22,7.37-2.53,8.91-4.39
		c0.67-0.81,1.24-1.51,2.01-1.92c1.21-0.64,1.87-0.94,2.27-1.1c0.59-0.26,0.59-0.26,1.14-0.98c0.27-0.35,0.67-0.87,1.31-1.66
		c0.37-0.46,0.76-0.88,1.13-1.29c0.94-1.04,1.82-2.01,2.6-3.52c1.89-3.65,3.68-10.88,2.29-13.91l-0.25,0.35
		c-0.26,0.41-0.53,0.87-0.83,1.34c-1.69,2.74-3.79,6.15-6.02,7.83c-0.18,0.13-0.4,0.31-0.66,0.52c-1.34,1.06-3.37,2.65-4.58,2.91
		c-1.26,0.28-2.08,0.3-2.88,0.31c-1.14,0.02-2.21,0.04-4.5,0.89c-1.83,0.68-2.95,0.71-4.12,0.73c-0.96,0.02-1.93,0.04-3.42,0.39
		c-0.77,0.19-1.39,0.28-1.91,0.28c-0.92,0-1.36-0.29-1.75-0.55c-0.35-0.23-0.64-0.42-1.27-0.42c-0.36,0-0.8,0.07-1.33,0.21
		c-1.18,0.31-2.05,1.01-2.57,2.08c-1.17,2.48-0.32,6.58,1.06,9.56C83.88,34.95,84.96,35.62,87.47,35.62z"/>
	<path class="st0" d="M61.08,47.11l1.98,2.68c0.24,0.31,0.24,0.31,0.33,0.35c0.04,0.02,0.09,0.05,0.17,0.1
		c0.49-1.02,0.35-1.34,0.05-2.08c-0.1-0.25-0.22-0.52-0.33-0.88L61.08,47.11z"/>
	<path class="st0" d="M45.37,39.85c-0.87,1.53-3.62,11.36-3.6,13.87c0,0.59-0.01,0.97-0.02,1.21c0,0.09,0,0.18,0,0.24
		c0.13,0.01,0.31,0.04,0.55,0.16c0-0.02,0.01-0.03,0.01-0.03c0.03-0.06,0.05-0.12,0.08-0.16l1.19-6.49
		c0.57-2.89,1.15-3.79,3.73-3.79c0.3,0,0.62,0.01,0.97,0.03l0.07,0.01l0.05,0.05c3.45,3.17,3.37,5.35,2.52,11.07l5.95,0.27
		c-1.13-4.02,0.69-8.38,3.03-10.49l0.06-0.05h0.07c3.66-0.09,5.35,1.85,5.37,6.13l-0.63,5.21l8.5,0.9
		c-0.57-9.58-2.64-21.1-9.24-22.2c-0.48-0.08-0.94-0.13-1.35-0.13c-2.98,0-3.94,2.06-4.93,4.24l-0.13,0.29l-0.21-0.23l-2.41-2.98
		c-0.82-0.93-1.91-1.42-3.16-1.42C49.47,35.55,46.81,37.32,45.37,39.85z"/>
	<g>
		<path class="st0" d="M60.1,75.02c0.87-0.12,1.7-0.25,2.49-0.4C61.79,74.77,60.97,74.91,60.1,75.02z"/>
		<path class="st0" d="M37.83,72.25c0.64,0.21,1.42,0.43,2.39,0.69C39.26,72.7,38.48,72.47,37.83,72.25z"/>
		<path class="st0" d="M35.86,71.48c0.49,0.25,1.11,0.49,1.97,0.78C36.97,71.98,36.35,71.73,35.86,71.48z"/>
		<path class="st0" d="M84.53,72.35c0.54,0.36,1.06,0.77,1.53,1.21C85.59,73.13,85.07,72.72,84.53,72.35z"/>
		<path class="st0" d="M4.28,76.57c-0.04-0.45-0.06-0.91-0.07-1.34C4.22,75.67,4.24,76.12,4.28,76.57z"/>
		<path class="st0" d="M87.35,74.97c0.38,0.49,0.72,1.02,1,1.56C88.06,75.99,87.73,75.47,87.35,74.97z"/>
		<path class="st0" d="M38.27,96.9c-0.94-2.12-1.88-4.67-3.01-7.68C36.39,92.24,37.34,94.78,38.27,96.9z"/>
		<path class="st0" d="M7.09,68.46c-0.12,0.35-0.22,0.69-0.31,1.03C6.87,69.15,6.98,68.81,7.09,68.46z"/>
		<path class="st0" d="M60.1,75.02c-2.17,0.29-4.59,0.43-7.32,0.36c-1.31-0.04-2.36-0.16-3.27-0.32c0.92,0.16,1.96,0.28,3.27,0.32
			C55.51,75.45,57.93,75.3,60.1,75.02z"/>
		<path class="st0" d="M43.89,104.39c-0.68-0.39-1.3-0.87-1.87-1.43C42.58,103.52,43.2,103.99,43.89,104.39z"/>
		<path class="st0" d="M5.88,79.63c-0.03,0.3-0.06,0.55-0.09,0.79C5.82,80.18,5.85,79.93,5.88,79.63z"/>
		<path class="st0" d="M6.08,77.41c-0.04,0.45-0.07,0.86-0.1,1.22C6.01,78.27,6.04,77.86,6.08,77.41z"/>
		<path class="st0" d="M5.59,82.32c-0.36-1-0.65-1.98-0.87-2.94C4.93,80.34,5.22,81.32,5.59,82.32z"/>
		<path class="st0" d="M39.68,99.76c-0.48-0.86-0.95-1.8-1.41-2.87C38.74,97.96,39.2,98.91,39.68,99.76z"/>
		<path class="st0" d="M52.89,105.71c0.83-0.06,1.72-0.15,2.68-0.26c0.62-0.07,1.25-0.13,1.9-0.16c-0.65,0.04-1.28,0.09-1.9,0.16
			C54.61,105.57,53.72,105.66,52.89,105.71z"/>
		<path class="st0" d="M9.28,63.55c-0.18,0.26-0.37,0.59-0.58,1C8.91,64.14,9.11,63.81,9.28,63.55c0.36-0.5,0.83-0.89,1.44-1.14
			C10.11,62.67,9.63,63.05,9.28,63.55z"/>
		<path class="st0" d="M6.08,77.41c0.13-1.58,0.26-3.69,0.39-6.54c0.07-0.42,0.18-0.89,0.32-1.39c-0.14,0.5-0.25,0.97-0.32,1.39
			C6.34,73.73,6.2,75.84,6.08,77.41z"/>
		<path class="st0" d="M34.18,86.32c0.1,0.27,0.19,0.52,0.27,0.75l0.81,2.15l-0.81-2.15C34.37,86.83,34.28,86.58,34.18,86.32z"/>
		<path class="st0" d="M80.55,101.96c0.3-0.22,0.58-0.44,0.88-0.68l0.31-0.25l-0.31,0.25C81.13,101.53,80.84,101.75,80.55,101.96z"
			/>
		<path class="st0" d="M45.44,74.11c-0.54-0.12-1.11-0.23-1.77-0.33c-1.36-0.32-2.51-0.59-3.46-0.84c0.96,0.25,2.1,0.53,3.46,0.84
			C44.33,73.88,44.91,73.99,45.44,74.11z"/>
		<path class="st0" d="M35.51,71.3c-0.54-0.31-0.93-0.61-1.36-0.96c-0.11-0.08-0.22-0.17-0.33-0.26c0.12,0.09,0.22,0.18,0.33,0.26
			C34.58,70.69,34.97,70.99,35.51,71.3z"/>
		<path class="st0" d="M31.6,78.59c-1.06-2.99-2.31-6.11-3.75-8.55C29.3,72.49,30.54,75.61,31.6,78.59z"/>
		<path class="st0" d="M81.73,101.03l0.31-0.25c0.28-0.23,0.6-0.48,0.95-0.77c-0.35,0.29-0.67,0.54-0.95,0.77L81.73,101.03z"/>
		<path class="st0" d="M27.86,70.03c-0.41-0.7-0.84-1.34-1.28-1.92C27.02,68.69,27.44,69.33,27.86,70.03z"/>
		<path class="st0" d="M88.96,88.12c-0.1,0.87-0.22,1.73-0.36,2.54C88.74,89.85,88.86,88.99,88.96,88.12z"/>
		<path class="st0" d="M72.44,105.4c-0.49,0.08-0.98,0.13-1.45,0.17C71.45,105.53,71.94,105.48,72.44,105.4z"/>
		<path class="st0" d="M87.87,94.05c-0.19,0.66-0.39,1.24-0.62,1.73C87.47,95.29,87.68,94.71,87.87,94.05z"/>
		<path class="st0" d="M76.33,104.35c-0.54,0.22-1.08,0.4-1.6,0.55C75.25,104.75,75.78,104.57,76.33,104.35z"/>
		<path class="st0" d="M73.95,105.11c-0.51,0.13-1.02,0.22-1.51,0.3C72.93,105.33,73.44,105.24,73.95,105.11z"/>
		<path class="st0" d="M10.72,62.41c0.61-0.26,1.34-0.38,2.2-0.38c1.23,0,2.62,0.27,4.01,0.67c-1.39-0.4-2.78-0.67-4.01-0.67
			C12.07,62.03,11.34,62.16,10.72,62.41z"/>
		<path class="st0" d="M80.04,70.46c-0.64-0.13-1.28-0.19-1.92-0.19c-1.51,0-3.05,0.42-4.82,1.04c1.78-0.61,3.31-1.04,4.82-1.04
			C78.76,70.26,79.4,70.33,80.04,70.46z"/>
		<path class="st0" d="M4.52,71.46c0.36-1.96,1.02-3.72,1.82-5.18C5.54,67.75,4.89,69.5,4.52,71.46z"/>
		<path class="st0" d="M89.25,79.87c0.05,0.6,0.07,1.28,0.08,2.02C89.33,81.15,89.3,80.47,89.25,79.87z"/>
		<path class="st0" d="M4.21,75.23c-0.02-0.88,0.03-1.74,0.13-2.55C4.24,73.5,4.2,74.34,4.21,75.23z"/>
		<path class="st0" d="M71.43,71.98c0.65-0.24,1.27-0.46,1.86-0.67C72.71,71.51,72.08,71.74,71.43,71.98z"/>
		<path class="st0" d="M8.29,65.41C8.15,65.71,8,66.04,7.86,66.37C8,66.04,8.14,65.71,8.29,65.41z"/>
		<path class="st0" d="M57.48,105.29c0.65-0.04,1.32-0.05,2.02-0.05c0.86,0,1.7,0.03,2.53,0.07c-0.83-0.04-1.67-0.07-2.53-0.07
			C58.8,105.24,58.13,105.25,57.48,105.29z"/>
		<path class="st0" d="M31.6,78.59c0.6,1.71,1.14,3.37,1.63,4.85c0.12,0.36,0.24,0.71,0.35,1.05c-0.11-0.34-0.23-0.69-0.35-1.05
			C32.75,81.97,32.21,80.3,31.6,78.59z"/>
		<path class="st0" d="M21.67,64.56c-0.7-0.34-1.47-0.68-2.27-1C20.2,63.88,20.97,64.22,21.67,64.56z"/>
		<path class="st0" d="M89.25,79.87c-0.02-0.3-0.05-0.57-0.09-0.83c-0.12-0.86-0.4-1.71-0.82-2.52c-0.28-0.54-0.61-1.06-1-1.56
			c-0.38-0.49-0.82-0.97-1.29-1.41c-0.47-0.43-0.99-0.85-1.53-1.21c-1.35-0.92-2.9-1.59-4.5-1.9c-0.64-0.13-1.28-0.19-1.92-0.19
			c-1.51,0-3.05,0.42-4.82,1.04c-0.59,0.21-1.21,0.43-1.86,0.67c-2.47,0.91-5.29,1.94-8.85,2.64c-0.79,0.16-1.62,0.29-2.49,0.4
			c-2.17,0.29-4.59,0.43-7.32,0.36c-1.31-0.04-2.36-0.16-3.27-0.32c-0.92-0.16-1.71-0.36-2.53-0.57c-0.49-0.13-1-0.26-1.54-0.37
			c-0.54-0.12-1.11-0.23-1.77-0.33c-1.36-0.32-2.51-0.59-3.46-0.84s-1.74-0.47-2.39-0.69c-0.86-0.28-1.48-0.53-1.97-0.78
			c-0.12-0.06-0.24-0.12-0.35-0.19c-0.54-0.31-0.93-0.61-1.36-0.96c-0.11-0.08-0.22-0.17-0.33-0.26c-0.8-0.61-1.89-1.38-4.32-2.52
			c-0.67-0.32-1.4-0.67-2.18-1.06c-4.07-1.99-9.66-4.73-14.08-4.73c-2.31,0-4.03,0.72-5.3,2.19c-0.57,0.66-1.1,1.44-1.59,2.32
			c-0.81,1.47-1.46,3.22-1.82,5.18c-0.07,0.39-0.13,0.8-0.18,1.2c-0.1,0.82-0.14,1.68-0.13,2.55c0.01,0.44,0.03,0.89,0.07,1.34
			c0.08,0.91,0.22,1.84,0.43,2.81c0.22,0.96,0.5,1.94,0.87,2.94c0.01-0.26,0.05-0.56,0.11-1.03c0.03-0.24,0.06-0.52,0.1-0.87
			c0.03-0.24,0.06-0.49,0.09-0.79c0.03-0.3,0.06-0.62,0.1-1s0.07-0.77,0.1-1.22c0.13-1.58,0.26-3.69,0.39-6.54
			c0.07-0.42,0.18-0.89,0.32-1.39c0.09-0.34,0.2-0.68,0.31-1.03c0.23-0.7,0.49-1.41,0.77-2.08c0.14-0.34,0.28-0.66,0.42-0.97
			c0.15-0.31,0.29-0.6,0.42-0.86c0.21-0.39,0.4-0.74,0.58-1c0.36-0.5,0.83-0.89,1.44-1.14c0.61-0.26,1.34-0.38,2.2-0.38
			c1.23,0,2.62,0.27,4.01,0.67c0.84,0.25,1.67,0.54,2.47,0.86s1.57,0.66,2.27,1c1.17,0.56,2.16,1.11,2.8,1.53
			c0.73,0.47,1.43,1.16,2.1,2.02c0.44,0.57,0.87,1.22,1.28,1.92c1.44,2.45,2.68,5.56,3.75,8.55c0.6,1.71,1.14,3.37,1.63,4.85
			c0.12,0.36,0.24,0.71,0.35,1.05c0.22,0.67,0.42,1.28,0.61,1.82c0.1,0.27,0.19,0.52,0.27,0.75l0.81,2.15
			c1.12,3.02,2.08,5.56,3.01,7.68c0.46,1.06,0.93,2.01,1.41,2.87c0.72,1.28,1.48,2.34,2.34,3.19c0.57,0.56,1.19,1.05,1.87,1.43
			c1.72,0.98,3.84,1.42,6.69,1.42c0.72,0,1.48-0.03,2.31-0.09c0.83-0.06,1.72-0.15,2.68-0.26c0.62-0.07,1.25-0.13,1.9-0.16
			c0.65-0.04,1.32-0.05,2.02-0.05c0.86,0,1.7,0.03,2.53,0.07c0.83,0.04,1.64,0.09,2.44,0.15c1.55,0.1,3,0.2,4.47,0.2
			c0.66,0,1.35-0.02,2.06-0.07c0.47-0.04,0.96-0.09,1.45-0.17c0.49-0.08,1-0.17,1.51-0.3c0.26-0.06,0.51-0.13,0.78-0.21
			c0.52-0.15,1.06-0.34,1.6-0.55c1.35-0.54,2.76-1.31,4.22-2.39c0.3-0.22,0.58-0.44,0.88-0.68l0.31-0.25l0.31-0.25
			c0.28-0.23,0.6-0.48,0.95-0.77c1.5-1.22,3.42-2.83,3.91-3.6c0.12-0.19,0.24-0.4,0.35-0.65c0.23-0.48,0.43-1.07,0.62-1.73
			c0.29-0.99,0.53-2.14,0.74-3.38c0.14-0.82,0.26-1.68,0.36-2.54c0.25-2.16,0.37-4.38,0.36-6.23C89.33,81.15,89.3,80.47,89.25,79.87
			z M76.01,89.59c-2.56,1.72-9.33-3.5-8.54-6.22c0.53-1.82,1.48-2.01,3.29-2.65c4.47-1.59,5.28-0.17,8.93,0.78
			C79.34,85.29,78.57,87.89,76.01,89.59z"/>
	</g>
	<path class="st0" d="M13.01,93.49c1.7,2.17,6.27,6.38,8.75,6.52c-0.15-0.51-0.36-1.15-0.6-1.88c-1.27-3.84-3.39-10.28-1.55-12.89
		l0.15-0.21l0.17,0.19c0.53,0.63,0.98,2.39,1.45,4.26c0.35,1.35,0.7,2.76,1.08,3.69c0.54,1.31,0.82,2.29,1.04,3.07
		c0.43,1.56,0.68,2.42,2.52,4.08c3.27,2.97,7.6,6,14.81,6.02c0.31-1.83-0.45-2.66-1.41-3.72c-0.33-0.36-0.65-0.72-0.99-1.15
		c-0.74-0.99-1.23-1.95-1.8-3.08c-0.31-0.59-0.61-1.2-0.99-1.86c-1.83-3.25-2.12-4.31-2.46-5.53c-0.3-1.08-0.62-2.3-2.08-5.32
		c-1.15-1.85-1.78-3.66-2.44-5.58c-0.57-1.67-1.16-3.38-2.14-5.2c-0.62-1.14-1.06-2.03-1.42-2.75c-1.43-2.87-1.43-2.87-6.06-5.17
		l-0.2-0.1c-1.73-0.85-3.58-1.34-5.1-1.34c-1.83,0-4.11,0.71-4.54,4.07l0,0.14C7.93,79.95,7.84,82.71,8,83.23
		C8.41,84.65,12.24,92.51,13.01,93.49z"/>
	<path class="st0" d="M37.1,107.96c-0.68-0.17-1.36-0.4-2.01-0.62c-1.35-0.45-2.63-0.88-3.97-0.88c-0.58,0-1.11,0.08-1.65,0.25
		c-0.3,2.24,0.38,2.39,2.54,2.88l14.48,2.6c1.04,0.09,2.18,0.13,3.47,0.13c1.52,0,3.08-0.06,4.59-0.12c1.2-0.05,2.46-0.1,3.68-0.11
		c3.17-0.04,7.08-0.1,7.39-3.13c-2.4-0.88-11.02-1.29-16.21-1.29c-1.02,0-1.87,0.02-2.49,0.05c-1.14,0.06-2.13,0.22-3.08,0.36
		c-1.1,0.17-2.15,0.34-3.33,0.34C39.4,108.4,38.28,108.25,37.1,107.96z"/>
	<path class="st0" d="M35.04,38.05c-1.21,0.88-2.47,1.8-4,2.33l-0.53,0.19l0.31-0.48c0.62-0.97,1.15-1.35,2.03-1.98
		c0.22-0.16,0.46-0.33,0.73-0.53c0.58-0.43,1.02-0.73,1.33-0.94c0.73-0.49,0.92-0.62,1.35-1.41c-0.48,0.12-0.87,0.24-1.23,0.36
		c-0.54,0.19-1.05,0.35-1.81,0.46c-1.11,0.16-1.83,0.17-2.35,0.18c-1.4,0.02-1.4,0.02-4.87,3.38l-0.66,0.64
		c-0.81,0.78-1.42,1.52-2.01,2.24c-0.55,0.67-1.11,1.36-1.82,2.05l-0.33,0.33c-1.4,1.36-2.52,2.45-3.04,4.57
		c1.27-0.27,2.3-0.66,3.36-1.08c0.8-0.32,1.63-0.65,2.59-0.92c0.86-0.25,1.8-0.38,2.78-0.53c1.44-0.21,2.94-0.43,4.2-1.01
		c4.73-2.15,6.73-5.02,6.61-9.55C36.75,36.79,35.92,37.41,35.04,38.05z"/>
	<path class="st0" d="M43.7,32.73c2.09-1.08,3.64-7.14,2.76-10.74c-0.17-0.02-0.34-0.03-0.49-0.03c-0.64,0-1.14,0.17-1.69,0.35
		c-0.58,0.19-1.19,0.38-1.98,0.38c-0.78,0-1.63-0.19-2.6-0.58c-1-0.39-2.09-0.65-3.17-0.9c-1.42-0.34-2.76-0.64-3.79-1.25
		c-2.67-1.59-3.79-3.75-4.86-5.84c-0.69-1.35-1.36-2.64-2.41-3.8c0.22,3.63,0.99,8.2,2.55,10.74c0.74,1.19,1.11,2,1.56,2.94
		c0.25,0.52,0.52,1.11,0.9,1.85c1.08,2.12,6.71,7.35,11.15,7.35C42.39,33.19,43.08,33.04,43.7,32.73z"/>
	<path class="st0" d="M87.47,35.62c0.95,0,2.06-0.09,3.47-0.21c1.42-0.12,3.2-0.27,5.28-0.35c5.45-0.22,7.37-2.53,8.91-4.39
		c0.67-0.81,1.24-1.51,2.01-1.92c1.21-0.64,1.87-0.94,2.27-1.1c0.59-0.26,0.59-0.26,1.14-0.98c0.27-0.35,0.67-0.87,1.31-1.66
		c0.37-0.46,0.76-0.88,1.13-1.29c0.94-1.04,1.82-2.01,2.6-3.52c1.89-3.65,3.68-10.88,2.29-13.91l-0.25,0.35
		c-0.26,0.41-0.53,0.87-0.83,1.34c-1.69,2.74-3.79,6.15-6.02,7.83c-0.18,0.13-0.4,0.31-0.66,0.52c-1.34,1.06-3.37,2.65-4.58,2.91
		c-1.26,0.28-2.08,0.3-2.88,0.31c-1.14,0.02-2.21,0.04-4.5,0.89c-1.83,0.68-2.95,0.71-4.12,0.73c-0.96,0.02-1.93,0.04-3.42,0.39
		c-0.77,0.19-1.39,0.28-1.91,0.28c-0.92,0-1.36-0.29-1.75-0.55c-0.35-0.23-0.64-0.42-1.27-0.42c-0.36,0-0.8,0.07-1.33,0.21
		c-1.18,0.31-2.05,1.01-2.57,2.08c-1.17,2.48-0.32,6.58,1.06,9.56C83.88,34.95,84.96,35.62,87.47,35.62z"/>
	<path class="st0" d="M96.9,39.71c1.27,4.37,13.15,5.63,17.84,6.08c-3.25-2.92-13.29-6.27-16.79-6.27
		C97.32,39.53,97.03,39.62,96.9,39.71z"/>
	<path class="st0" d="M48.11,46.3c-0.05-0.01-0.11-0.01-0.18-0.01c-0.39,0-0.99,0.13-1.28,0.22c0.16,0.28,0.21,0.42,0.23,0.51v0.01
		c0.03,0.01,0.09,0.03,0.15,0.05c0.19,0.06,0.49,0.15,1.04,0.36l0.11,0.04l0.36,2.4c0.75-0.34,1.14-0.66,1.26-1.05
		c0.13-0.4-0.01-0.93-0.45-1.66C49.19,46.96,48.28,46.35,48.11,46.3z"/>
	<path class="st0" d="M45.37,39.85c-0.87,1.53-3.62,11.36-3.6,13.87c0,0.59-0.01,0.97-0.02,1.21c0,0.09,0,0.18,0,0.24
		c0.13,0.01,0.31,0.04,0.55,0.16c0-0.02,0.01-0.03,0.01-0.03c0.03-0.06,0.05-0.12,0.08-0.16l1.19-6.49
		c0.57-2.89,1.15-3.79,3.73-3.79c0.3,0,0.62,0.01,0.97,0.03l0.07,0.01l0.05,0.05c3.45,3.17,3.37,5.35,2.52,11.07l5.95,0.27
		c-1.13-4.02,0.69-8.38,3.03-10.49l0.06-0.05h0.07c3.66-0.09,5.35,1.85,5.37,6.13l-0.63,5.21l8.5,0.9
		c-0.57-9.58-2.64-21.1-9.24-22.2c-0.48-0.08-0.94-0.13-1.35-0.13c-2.98,0-3.94,2.06-4.93,4.24l-0.13,0.29l-0.21-0.23l-2.41-2.98
		c-0.82-0.93-1.91-1.42-3.16-1.42C49.47,35.55,46.81,37.32,45.37,39.85z"/>
	<path class="st0" d="M63.29,47.28l-2.2-0.17l1.98,2.68c0.24,0.31,0.24,0.31,0.33,0.35c0.04,0.02,0.09,0.05,0.17,0.1
		c0.49-1.02,0.35-1.34,0.05-2.08C63.5,47.9,63.39,47.62,63.29,47.28z"/>
</g>
</svg>
